<svg id="Capa_1" enable-background="new 0 0 512 512" height="512" viewBox="0 0 512 512" width="512" xmlns="http://www.w3.org/2000/svg" xmlns:xlink="http://www.w3.org/1999/xlink"><linearGradient id="SVGID_1_" gradientUnits="userSpaceOnUse" x1="256" x2="256" y1="512" y2="0"><stop offset="0" stop-color="#fd3a84"/><stop offset="1" stop-color="#ffa68d"/></linearGradient><g><g><g><path d="m286 422h-30-30c-24.813 0-45 20.187-45 45v30c0 8.284 6.716 15 15 15h120c8.284 0 15-6.716 15-15v-30c0-24.813-20.187-45-45-45zm15 60h-90v-15c0-8.271 6.729-15 15-15h60c8.271 0 15 6.729 15 15zm-181-105c0-24.813-20.187-45-45-45s-45 20.187-45 45 20.187 45 45 45 45-20.187 45-45zm-45 15c-8.271 0-15-6.729-15-15s6.729-15 15-15 15 6.729 15 15-6.729 15-15 15zm.989-122h323.799l-4.393 4.392c-5.859 5.857-5.861 15.354-.004 21.213 5.856 5.858 15.352 5.862 21.213.004l30.011-30c4.292-4.29 5.576-10.742 3.254-16.347-2.322-5.606-7.792-9.261-13.859-9.261h-95.262c30.629-24.77 50.252-62.634 50.252-105.001 0-74.439-60.561-135-135-135-67.438 0-123.486 49.708-133.432 114.407l-5.031-5.031c-5.857-5.858-15.355-5.858-21.213 0s-5.858 15.355 0 21.213l30 30c4.529 4.53 11.437 5.684 17.194 2.87 5.756-2.813 9.089-8.972 8.298-15.33-.542-4.343-.816-8.76-.816-13.129 0-57.897 47.103-105 105-105s105 47.103 105 105-47.103 105-105 105h-180.011c-8.284 0-15 6.716-15 15s6.716 15 15 15zm391.011 152h-30-30c-24.813 0-45 20.187-45 45v30c0 8.284 6.716 15 15 15h120c8.284 0 15-6.716 15-15v-30c0-24.813-20.187-45-45-45zm15 60h-90v-15c0-8.271 6.729-15 15-15h60c8.271 0 15 6.729 15 15zm-377-60h-30-30c-24.813 0-45 20.187-45 45v30c0 8.284 6.716 15 15 15h120c8.284 0 15-6.716 15-15v-30c0-24.813-20.187-45-45-45zm15 60h-90v-15c0-8.271 6.729-15 15-15h60c8.271 0 15 6.729 15 15zm181-105c0-24.813-20.187-45-45-45s-45 20.187-45 45 20.187 45 45 45 45-20.187 45-45zm-45 15c-8.271 0-15-6.729-15-15s6.729-15 15-15 15 6.729 15 15-6.729 15-15 15zm226-15c0-24.813-20.187-45-45-45s-45 20.187-45 45 20.187 45 45 45 45-20.187 45-45zm-45 15c-8.271 0-15-6.729-15-15s6.729-15 15-15 15 6.729 15 15-6.729 15-15 15z" fill="url(#SVGID_1_)"/></g></g></g></svg>